# xmcd
#
# Track frame offsets:
#        150
#        15085
#        25812
#        45260
#        60152
#        76760
#        91145
#        107990
#        117640
#        134360
#        145162
#        159960
#        177637
#
# Disc length: 2609 seconds
#
# Revision: 0
# Processed by: cddbd v1.5.1PL0 Copyright (c) Steve Scherf et al.
# Submitted via: ExactAudioCopy v0.95a5
#
DISCID=960a2f0d
DTITLE=Commodores - Christmas
DYEAR=1992
DGENRE=Soul
TTITLE0=When The Starts Come Out For Christmas
TTITLE1=Hark The Herald Angels Sing
TTITLE2=Chirstmas Time Is Here
TTITLE3=The First Noel
TTITLE4=Merry Chirstmas, Oh Happy Day
TTITLE5=O Come All Ye Faithful
TTITLE6=The Christmas Song
TTITLE7=Deck The Halls
TTITLE8=Do You Hear What I Hear
TTITLE9=Sleigh Ride Together With You
TTITLE10=Angels We Have Heard On High
TTITLE11=Jerry The Elf
TTITLE12=Christmas Eve
EXTD=
EXTT0=
EXTT1=
EXTT2=
EXTT3=
EXTT4=
EXTT5=
EXTT6=
EXTT7=
EXTT8=
EXTT9=
EXTT10=
EXTT11=
EXTT12=
PLAYORDER=
